HIERARCHY
ROOT root
{
  OFFSET 0 98.6856 0
  CHANNELS 6 Xposition Yposition Zposition Zrotation Xrotation Yrotation
  JOINT torso_1
  {
    OFFSET 0 5.37224 -1.21793
    CHANNELS 6 Xposition Yposition Zposition Zrotation Xrotation Yrotation
    JOINT torso_2
    {
      OFFSET 0 5.94127 1.13336
      CHANNELS 6 Xposition Yposition Zposition Zrotation Xrotation Yrotation
      JOINT torso_3
      {
        OFFSET -1.08535e-17 6.33601 0.121658
        CHANNELS 6 Xposition Yposition Zposition Zrotation Xrotation Yrotation
        JOINT torso_4
        {
          OFFSET -1.16841e-17 6.88189 -0.46916
          CHANNELS 6 Xposition Yposition Zposition Zrotation Xrotation Yrotation
          JOINT torso_5
          {
            OFFSET -2.08699e-17 8.0451 -1.59297
            CHANNELS 6 Xposition Yposition Zposition Zrotation Xrotation Yrotation
            JOINT torso_6
            {
              OFFSET -2.67949e-17 10.0463 -0.967353
              CHANNELS 6 Xposition Yposition Zposition Zrotation Xrotation Yrotation
              JOINT torso_7
              {
                OFFSET -3.07187e-17 11.1612 1.66806
                CHANNELS 6 Xposition Yposition Zposition Zrotation Xrotation Yrotation
                JOINT neck_1
                {
                  OFFSET -1.36661e-17 5.06312 0.756688
                  CHANNELS 6 Xposition Yposition Zposition Zrotation Xrotation Yrotation
                  JOINT neck_2
                  {
                    OFFSET -1.91632e-17 5.09976 0.446172
                    CHANNELS 6 Xposition Yposition Zposition Zrotation Xrotation Yrotation
                    JOINT head
                    {
                      OFFSET -2.12574e-17 5.10962 0.809285
                      CHANNELS 6 Xposition Yposition Zposition Zrotation Xrotation Yrotation
                      End Site
                      {
                        OFFSET 0 0.1 0
                      }
                    }
                  }
                }
                JOINT l_shoulder
                {
                  OFFSET 1.30426 -8.04703 7.96922
                  CHANNELS 6 Xposition Yposition Zposition Zrotation Xrotation Yrotation
                  JOINT l_up_arm
                  {
                    OFFSET 13.7035 3.43734 -3.45766
                    CHANNELS 6 Xposition Yposition Zposition Zrotation Xrotation Yrotation
                    JOINT l_low_arm
                    {
                      OFFSET 30.8964 0.0632652 0.14496
                      CHANNELS 6 Xposition Yposition Zposition Zrotation Xrotation Yrotation
                      JOINT l_hand
                      {
                        OFFSET 25.6348 0.0524902 0.120274
                        CHANNELS 6 Xposition Yposition Zposition Zrotation Xrotation Yrotation
                        End Site
                        {
                          OFFSET 0.1 0 0
                        }
                      }
                    }
                  }
                }
                JOINT r_shoulder
                {
                  OFFSET -1.30426 -8.04702 7.96912
                  CHANNELS 6 Xposition Yposition Zposition Zrotation Xrotation Yrotation
                  JOINT r_up_arm
                  {
                    OFFSET -13.7035 3.43734 -3.45766
                    CHANNELS 6 Xposition Yposition Zposition Zrotation Xrotation Yrotation
                    JOINT r_low_arm
                    {
                      OFFSET -30.8964 0.0632652 0.14496
                      CHANNELS 6 Xposition Yposition Zposition Zrotation Xrotation Yrotation
                      JOINT r_hand
                      {
                        OFFSET -25.6348 0.0524901 0.120274
                        CHANNELS 6 Xposition Yposition Zposition Zrotation Xrotation Yrotation
                        End Site
                        {
                          OFFSET -0.1 0 0
                        }
                      }
                    }
                  }
                }
              }
            }
          }
        }
      }
    }
  }
  JOINT l_up_leg
  {
    OFFSET 9.77065 -4.44866 2.1502
    CHANNELS 6 Xposition Yposition Zposition Zrotation Xrotation Yrotation
    JOINT l_low_leg
    {
      OFFSET -0.901622 -41.0132 -0.693059
      CHANNELS 6 Xposition Yposition Zposition Zrotation Xrotation Yrotation
      JOINT l_foot
      {
        OFFSET -2.46068 -42.7371 -6.39839
        CHANNELS 6 Xposition Yposition Zposition Zrotation Xrotation Yrotation
        JOINT l_toes
        {
          OFFSET 0.82413 -10.4558 13.2182
          CHANNELS 6 Xposition Yposition Zposition Zrotation Xrotation Yrotation
          End Site
          {
            OFFSET 0 0 0.1
          }
        }
      }
    }
  }
  JOINT r_up_leg
  {
    OFFSET -9.77065 -4.44866 2.1502
    CHANNELS 6 Xposition Yposition Zposition Zrotation Xrotation Yrotation
    JOINT r_low_leg
    {
      OFFSET 0.901622 -41.0132 -0.693059
      CHANNELS 6 Xposition Yposition Zposition Zrotation Xrotation Yrotation
      JOINT r_foot
      {
        OFFSET 2.46068 -42.7371 -6.39839
        CHANNELS 6 Xposition Yposition Zposition Zrotation Xrotation Yrotation
        JOINT r_toes
        {
          OFFSET -0.82413 -10.4558 13.2182
          CHANNELS 6 Xposition Yposition Zposition Zrotation Xrotation Yrotation
          End Site
          {
            OFFSET 0 0 0.1
          }
        }
      }
    }
  }
}
MOTION
Frames: 8
Frame Time: 0.02
-0.251489 123.6 -33.8537 2.84527 3.08711 -3.44035 0 5.37224 -1.21793 -2.2972 3.58815 0.703955 0 5.94127 1.13336 -2.15203 3.42005 0.390968 -1.08535e-17 6.33601 0.121658 -1.77681 4.16016 0.532297 -1.16841e-17 6.88189 -0.46916 -1.54834 4.86664 0.574198 -2.08699e-17 8.0451 -1.59297 -1.208 4.97207 0.778241 -2.67949e-17 10.0463 -0.967353 -0.901359 5.76596 0.878626 -3.07187e-17 11.1612 1.66806 -0.0304927 0.0656565 -0.00313698 -1.36661e-17 5.06312 0.756688 -0.959836 5.1502 9.85079 -1.91632e-17 5.09976 0.446172 -1.33643 -9.45829 4.92478 -2.12574e-17 5.10962 0.809285 -1.69028 -7.90319 4.53196 1.30426 -8.04703 7.96922 17.2831 -2.52979 7.79477 13.7035 3.43734 -3.45766 -101.958 -0.245839 -0.289931 30.8964 0.0632652 0.14496 3.3463 -0.462532 -16.331 25.6348 0.0524902 0.120274 3.79623 3.99034 4.74895 -1.30426 -8.04702 7.96912 -12.7321 -0.524531 -7.94998 -13.7035 3.43734 -3.45766 103.035 20.2816 -1.33955 -30.8964 0.0632652 0.14496 -5.09152 -1.11583 25.2996 -25.6348 0.0524901 0.120274 2.24518 -36.545 -4.18666 9.77065 -4.44866 2.1502 -5.04288 -36.1089 -13.5446 -0.901622 -41.0132 -0.693059 -28.8106 61.9893 16.2958 -2.46068 -42.7371 -6.39839 4.36579 -16.179 16.2739 0.82413 -10.4558 13.2182 4.96962e-17 -7.95139e-16 1.2424e-17 -9.77065 -4.44866 2.1502 9.75427 -27.1052 27.3224 0.901622 -41.0132 -0.693059 16.9202 48.2795 -6.71688 2.46068 -42.7371 -6.39839 -11.0508 -19.0377 -16.083 -0.82413 -10.4558 13.2182 -5.96354e-16 -5.59082e-16 -1.27471e-14 
-0.153116 121.182 -33.1032 2.62185 2.74891 -2.78743 0 5.37224 -1.21793 -2.18948 3.35899 0.765217 0 5.94127 1.13336 -2.06924 3.25598 0.478512 -1.08535e-17 6.33601 0.121658 -1.70429 4.05457 0.635553 -1.16841e-17 6.88189 -0.46916 -1.49347 4.88672 0.685407 -2.08699e-17 8.0451 -1.59297 -1.13271 5.08105 0.89868 -2.67949e-17 10.0463 -0.967353 -0.766146 5.87308 0.989124 -3.07187e-17 11.1612 1.66806 -0.0269777 0.0649953 -0.0031319 -1.36661e-17 5.06312 0.756688 -0.709115 4.82065 9.38496 -1.91632e-17 5.09976 0.446172 -0.823496 -9.20218 4.70032 -2.12574e-17 5.10962 0.809285 -2.36917 -7.8798 4.01771 1.30426 -8.04703 7.96922 16.4583 -2.72233 8.06653 13.7035 3.43734 -3.45766 -100.393 -1.49056 2.04292 30.8964 0.0632652 0.14496 3.39352 -0.47621 -16.5676 25.6348 0.0524902 0.120274 3.15335 2.13208 4.1214 -1.30426 -8.04702 7.96912 -12.3531 -0.446197 -8.25776 -13.7035 3.43734 -3.45766 103.595 18.8325 -4.15801 -30.8964 0.0632652 0.14496 -5.09028 -1.11525 25.293 -25.6348 0.0524901 0.120274 2.03302 -38.6684 -3.34182 9.77065 -4.44866 2.1502 -4.90944 -31.6667 -15.5981 -0.901622 -41.0132 -0.693059 -20.6772 53.8129 9.54084 -2.46068 -42.7371 -6.39839 3.72718 -14.2992 16.0833 0.82413 -10.4558 13.2182 4.96962e-17 -7.95139e-16 1.2424e-17 -9.77065 -4.44866 2.1502 7.82973 -21.4357 27.2702 0.901622 -41.0132 -0.693059 11.7833 37.9858 -3.37453 2.46068 -42.7371 -6.39839 -9.19023 -17.089 -15.913 -0.82413 -10.4558 13.2182 -5.96354e-16 -5.59082e-16 -1.27471e-14 
-0.028534 118.25 -32.1468 2.34689 3.10254 -2.46471 0 5.37224 -1.21793 -2.08668 2.79754 0.810827 0 5.94127 1.13336 -1.95965 2.80668 0.548313 -1.08535e-17 6.33601 0.121658 -1.59381 3.72443 0.719162 -1.16841e-17 6.88189 -0.46916 -1.39252 4.77634 0.773757 -2.08699e-17 8.0451 -1.59297 -1.00822 5.14821 0.984208 -2.67949e-17 10.0463 -0.967353 -0.587628 5.97467 1.03709 -3.07187e-17 11.1612 1.66806 -0.0223033 0.0664186 -0.00244298 -1.36661e-17 5.06312 0.756688 -0.349834 4.32693 9.2843 -1.91632e-17 5.09976 0.446172 -0.388823 -8.6955 4.64659 -2.12574e-17 5.10962 0.809285 -3.26342 -7.6578 3.38519 1.30426 -8.04703 7.96922 15.4658 -2.63422 8.32773 13.7035 3.43734 -3.45766 -99.0501 -0.308133 5.01143 30.8964 0.0632652 0.14496 3.64368 -0.552213 -17.8256 25.6348 0.0524902 0.120274 2.58422 -1.29513 3.15159 -1.30426 -8.04702 7.96912 -11.9732 -0.334015 -8.36405 -13.7035 3.43734 -3.45766 103.903 18.0299 -7.05041 -30.8964 0.0632652 0.14496 -5.18631 -1.16053 25.8028 -25.6348 0.0524901 0.120274 1.92919 -40.4869 -2.29378 9.77065 -4.44866 2.1502 -4.65488 -27.4974 -17.7109 -0.901622 -41.0132 -0.693059 -15.0272 44.9006 5.4021 -2.46068 -42.7371 -6.39839 3.54259 -12.9642 15.9818 0.82413 -10.4558 13.2182 4.47266e-16 -7.82715e-16 3.05504e-33 -9.77065 -4.44866 2.1502 6.14892 -16.645 27.5179 0.901622 -41.0132 -0.693059 8.09704 28.1452 -1.52972 2.46068 -42.7371 -6.39839 -6.45368 -13.5188 -15.607 -0.82413 -10.4558 13.2182 -1.98785e-16 -5.8393e-16 -1.27595e-14 
0.137472 114.827 -31.1249 2.21512 4.58635 -2.26716 0 5.37224 -1.21793 -1.95909 1.54491 0.783673 0 5.94127 1.13336 -1.80842 1.83841 0.542581 -1.08535e-17 6.33601 0.121658 -1.45466 3.09937 0.710402 -1.16841e-17 6.88189 -0.46916 -1.26503 4.71759 0.759944 -2.08699e-17 8.0451 -1.59297 -0.888063 5.45301 0.953774 -2.67949e-17 10.0463 -0.967353 -0.46485 6.36599 0.988389 -3.07187e-17 11.1612 1.66806 -0.0183809 0.061206 -0.00214594 -1.36661e-17 5.06312 0.756688 0.00545276 3.63245 9.41671 -1.91632e-17 5.09976 0.446172 -0.280238 -8.35284 4.70725 -2.12574e-17 5.10962 0.809285 -3.93288 -7.36934 2.86487 1.30426 -8.04703 7.96922 14.1693 -2.78041 8.53354 13.7035 3.43734 -3.45766 -97.5576 1.13565 7.21124 30.8964 0.0632652 0.14496 3.95104 -0.653913 -19.3831 25.6348 0.0524902 0.120274 1.76643 -3.81379 2.29222 -1.30426 -8.04702 7.96912 -11.0884 -0.466613 -8.19438 -13.7035 3.43734 -3.45766 103.035 17.2073 -9.20148 -30.8964 0.0632652 0.14496 -5.4103 -1.27026 27.0003 -25.6348 0.0524901 0.120274 1.92759 -41.0646 -1.50217 9.77065 -4.44866 2.1502 -3.66155 -24.511 -18.2976 -0.901622 -41.0132 -0.693059 -11.163 36.4839 3.02583 -2.46068 -42.7371 -6.39839 2.87644 -11.9688 15.8967 0.82413 -10.4558 13.2182 4.47266e-16 -7.82715e-16 3.05504e-33 -9.77065 -4.44866 2.1502 4.44842 -13.5354 27.8849 0.901622 -41.0132 -0.693059 5.452 19.7429 -0.600875 2.46068 -42.7371 -6.39839 -3.82175 -10.1273 -15.4411 -0.82413 -10.4558 13.2182 -5.96354e-16 -5.59082e-16 -1.27471e-14 
0.341074 111.152 -30.1646 2.41739 2.17214 -1.49164 0 5.37224 -1.21793 -1.78486 0.773844 0.7839 0 5.94127 1.13336 -1.65691 1.38761 0.567124 -1.08535e-17 6.33601 0.121658 -1.36272 2.98115 0.720349 -1.16841e-17 6.88189 -0.46916 -1.20651 5.16661 0.762862 -2.08699e-17 8.0451 -1.59297 -0.87647 6.17542 0.949174 -2.67949e-17 10.0463 -0.967353 -0.46117 7.07115 1.01468 -3.07187e-17 11.1612 1.66806 -0.0136015 0.0476676 -0.00267394 -1.36661e-17 5.06312 0.756688 -0.0772831 4.81262 9.25789 -1.91632e-17 5.09976 0.446172 -0.926343 -8.02063 4.59232 -2.12574e-17 5.10962 0.809285 -3.44465 -8.25166 2.07883 1.30426 -8.04703 7.96922 12.6331 -3.43797 8.14181 13.7035 3.43734 -3.45766 -95.258 1.84556 7.11372 30.8964 0.0632652 0.14496 3.96272 -0.65796 -19.4427 25.6348 0.0524902 0.120274 0.683298 -5.0661 2.71334 -1.30426 -8.04702 7.96912 -9.68319 -1.07754 -7.55217 -13.7035 3.43734 -3.45766 101.146 15.8628 -9.40566 -30.8964 0.0632652 0.14496 -5.32533 -1.22795 26.5446 -25.6348 0.0524901 0.120274 0.936788 -41.3981 -1.79921 9.77065 -4.44866 2.1502 -2.99411 -18.2447 -19.189 -0.901622 -41.0132 -0.693059 -8.57864 29.557 1.73728 -2.46068 -42.7371 -6.39839 2.00537 -9.33551 15.5565 0.82413 -10.4558 13.2182 4.47266e-16 -7.82715e-16 3.05504e-33 -9.77065 -4.44866 2.1502 1.90703 -7.45887 25.3244 0.901622 -41.0132 -0.693059 3.70003 13.649 -0.203468 2.46068 -42.7371 -6.39839 -2.24731 -7.70395 -15.3579 -0.82413 -10.4558 13.2182 -9.93923e-16 -5.46658e-16 -1.27222e-14 
0.64678 106.92 -29.5648 2.45051 -0.131068 -1.21375 0 5.37224 -1.21793 -1.73733 0.689637 0.850111 0 5.94127 1.13336 -1.62105 1.50579 0.626666 -1.08535e-17 6.33601 0.121658 -1.34409 3.26478 0.767014 -1.16841e-17 6.88189 -0.46916 -1.17086 5.77588 0.808491 -2.08699e-17 8.0451 -1.59297 -0.83531 6.88193 0.998211 -2.67949e-17 10.0463 -0.967353 -0.337215 7.65002 1.07751 -3.07187e-17 11.1612 1.66806 -0.00592198 0.0341524 -0.0008777 -1.36661e-17 5.06312 0.756688 0.0993163 5.42811 9.54619 -1.91632e-17 5.09976 0.446172 -1.47633 -8.72871 4.71363 -2.12574e-17 5.10962 0.809285 -3.75404 -9.89705 0.681128 1.30426 -8.04703 7.96922 10.7779 -3.90526 7.59375 13.7035 3.43734 -3.45766 -93.3884 3.1024 6.01535 30.8964 0.0632652 0.14496 4.05527 -0.690519 -19.9146 25.6348 0.0524902 0.120274 -0.0247509 -8.73634 1.95431 -1.30426 -8.04702 7.96912 -7.50032 -1.68079 -6.99698 -13.7035 3.43734 -3.45766 97.9987 12.9952 -7.43879 -30.8964 0.0632652 0.14496 -5.1953 -1.16483 25.8506 -25.6348 0.0524901 0.120274 1.08208 -39.9723 -0.905214 9.77065 -4.44866 2.1502 -2.67522 -13.7866 -21.8942 -0.901622 -41.0132 -0.693059 -7.49388 26.3241 1.28567 -2.46068 -42.7371 -6.39839 1.30301 -8.04956 15.5368 0.82413 -10.4558 13.2182 4.96962e-17 -7.95139e-16 1.2424e-17 -9.77065 -4.44866 2.1502 0.0936889 -3.62384 24.6311 0.901622 -41.0132 -0.693059 3.23232 11.9667 -0.129164 2.46068 -42.7371 -6.39839 -1.85205 -7.44951 -15.3447 -0.82413 -10.4558 13.2182 -5.96354e-16 -5.59082e-16 -1.27471e-14 
1.07137 102.041 -29.2821 2.10954 0.0302593 -0.680072 0 5.37224 -1.21793 -1.54541 0.553924 0.741484 0 5.94127 1.13336 -1.42676 1.46392 0.522129 -1.08535e-17 6.33601 0.121658 -1.16386 3.23537 0.633716 -1.16841e-17 6.88189 -0.46916 -0.971123 5.83844 0.672321 -2.08699e-17 8.0451 -1.59297 -0.654312 6.93033 0.827814 -2.67949e-17 10.0463 -0.967353 -0.1478 7.57729 0.87206 -3.07187e-17 11.1612 1.66806 3.39779e-05 0.0300295 0.0013866 -1.36661e-17 5.06312 0.756688 0.367692 4.9915 9.62885 -1.91632e-17 5.09976 0.446172 -1.90355 -9.09885 4.68324 -2.12574e-17 5.10962 0.809285 -4.58333 -10.8855 -0.0948505 1.30426 -8.04703 7.96922 8.45853 -3.67885 6.50558 13.7035 3.43734 -3.45766 -91.6425 4.24695 3.38417 30.8964 0.0632652 0.14496 4.00222 -0.671745 -19.6441 25.6348 0.0524902 0.120274 -0.588473 -13.8808 0.593094 -1.30426 -8.04702 7.96912 -4.2005 -1.49372 -5.6579 -13.7035 3.43734 -3.45766 93.0905 10.4591 -4.38194 -30.8964 0.0632652 0.14496 -5.03104 -1.08783 24.9793 -25.6348 0.0524901 0.120274 1.67401 -39.1583 1.0272 9.77065 -4.44866 2.1502 -2.39031 -13.166 -25.4228 -0.901622 -41.0132 -0.693059 -7.68484 26.9069 1.36098 -2.46068 -42.7371 -6.39839 0.607352 -9.25153 15.7878 0.82413 -10.4558 13.2182 8.44835e-16 -7.57867e-16 -2.48481e-17 -9.77065 -4.44866 2.1502 -0.792436 -3.23936 25.4259 0.901622 -41.0132 -0.693059 3.48544 12.8796 -0.167673 2.46068 -42.7371 -6.39839 -2.68128 -9.69564 -15.5471 -0.82413 -10.4558 13.2182 -9.93923e-16 -5.46658e-16 -1.27222e-14 
1.40099 96.6741 -29.305 1.23188 -0.665103 -0.470667 0 5.37224 -1.21793 -1.06164 0.252446 0.723491 0 5.94127 1.13336 -1.03324 1.32443 0.51674 -1.08535e-17 6.33601 0.121658 -0.85215 3.1523 0.604227 -1.16841e-17 6.88189 -0.46916 -0.728436 5.90372 0.640767 -2.08699e-17 8.0451 -1.59297 -0.487826 7.0705 0.758281 -2.67949e-17 10.0463 -0.967353 -0.0298341 7.67164 0.791076 -3.07187e-17 11.1612 1.66806 0.000506386 0.0306447 0.00418692 -1.36661e-17 5.06312 0.756688 0.545881 3.79092 9.49341 -1.91632e-17 5.09976 0.446172 -2.31503 -9.1151 4.5522 -2.12574e-17 5.10962 0.809285 -5.04836 -10.7635 -0.957111 1.30426 -8.04703 7.96922 5.36963 -3.39912 5.07845 13.7035 3.43734 -3.45766 -89.1348 4.21487 -0.468437 30.8964 0.0632652 0.14496 3.79303 -0.600465 -18.5812 25.6348 0.0524902 0.120274 -1.53762 -17.3074 -1.00422 -1.30426 -8.04702 7.96912 -0.936232 -1.06086 -3.9123 -13.7035 3.43734 -3.45766 87.7993 8.24522 -0.288528 -30.8964 0.0632652 0.14496 -4.92891 -1.04148 24.4405 -25.6348 0.0524901 0.120274 2.21035 -40.2348 1.91285 9.77065 -4.44866 2.1502 -2.59884 -12.8118 -29.9665 -0.901622 -41.0132 -0.693059 -9.41253 31.9116 2.12204 -2.46068 -42.7371 -6.39839 -0.041182 -10.8041 16.0435 0.82413 -10.4558 13.2182 4.96962e-17 -7.95139e-16 1.2424e-17 -9.77065 -4.44866 2.1502 0.747362 -3.42596 30.2243 0.901622 -41.0132 -0.693059 4.90151 17.8677 -0.456216 2.46068 -42.7371 -6.39839 -4.78542 -11.8573 -15.6306 -0.82413 -10.4558 13.2182 1.98785e-16 -5.96354e-16 -1.27719e-14 
